<svg xmlns="http://www.w3.org/2000/svg" viewBox="0 0 1080 1920"><defs><linearGradient id="bg" x2="0" y2="1"><stop stop-color="#111e2a"/><stop offset="0.62" stop-color="#263642"/><stop offset="1" stop-color="#080f16"/></linearGradient><radialGradient id="light"><stop stop-color="#b6a579" stop-opacity=".43"/><stop offset="1" stop-color="#b6a579" stop-opacity="0"/></radialGradient></defs><rect width="1080" height="1920" fill="url(#bg)"/><path d="M 0 460 L 230 200 L 850 200 L1080 460 L1080 1700 L0 1700Z" fill="#1d2a32" stroke="#3c505a" stroke-width="7"/><path d="M0 1650 L1080 1650 L1080 1920 L0 1920Z" fill="#111a23"/><path d="M 0 1650 L330 940 L750 940 L1080 1650" fill="#202c33" opacity=".6"/><circle cx="540" cy="360" r="470" fill="url(#light)"/><rect x="110" y="255" width="860" height="1150" fill="none" stroke="#48545a" stroke-width="12"/><rect x="90" y="290" width="90" height="95" rx="2" fill="#3f4747" opacity="0.37"/><rect x="206" y="290" width="90" height="95" rx="2" fill="#3f4747" opacity="0.15"/><path d="M 105 1450 l 18 -190 l 26 0 l 20 190 Z" fill="#1b2931" opacity="0.65"/><path d="M 210 1450 l 18 -190 l 26 0 l 20 190 Z" fill="#1b2931" opacity="0.65"/><path d="M 315 1450 l 18 -190 l 26 0 l 20 190 Z" fill="#1b2931" opacity="0.65"/><path d="M 420 1450 l 18 -190 l 26 0 l 20 190 Z" fill="#1b2931" opacity="0.65"/><path d="M 525 1450 l 18 -190 l 26 0 l 20 190 Z" fill="#1b2931" opacity="0.65"/><path d="M 630 1450 l 18 -190 l 26 0 l 20 190 Z" fill="#1b2931" opacity="0.65"/><path d="M 735 1450 l 18 -190 l 26 0 l 20 190 Z" fill="#1b2931" opacity="0.65"/><path d="M 840 1450 l 18 -190 l 26 0 l 20 190 Z" fill="#1b2931" opacity="0.65"/><text x="540" y="130" text-anchor="middle" font-family="sans-serif" font-size="44" fill="#b8c4c5">404호 화재 이후</text><g opacity=".25" stroke="#a8b6bc"><path d="M0 570 L1080 570"/><path d="M0 780 L1080 780"/><path d="M0 990 L1080 990"/><path d="M0 1200 L1080 1200"/><path d="M0 1410 L1080 1410"/><path d="M0 1620 L1080 1620"/></g><rect x="40" y="1770" width="1000" height="100" rx="14" fill="#080e15" opacity=".72"/><text x="75" y="1835" fill="#b2bec1" font-size="31" font-family="sans-serif">BG11 / room404_after / ART BLOCKOUT</text></svg>